<?xml version="1.0" encoding="UTF-8" standalone="no"?>
<!DOCTYPE svg PUBLIC "-//W3C//DTD SVG 1.1//EN" "http://www.w3.org/Graphics/SVG/1.1/DTD/svg11.dtd">
<svg width="100%" height="100%" viewBox="0 0 1024 1024" version="1.1" xmlns="http://www.w3.org/2000/svg" xmlns:xlink="http://www.w3.org/1999/xlink" xml:space="preserve" xmlns:serif="http://www.serif.com/" style="fill-rule:evenodd;clip-rule:evenodd;stroke-linecap:round;stroke-linejoin:round;stroke-miterlimit:1.5;">
    <g transform="matrix(1.01446,0,0,1.01148,-0.0286359,-0.00484461)">
        <rect x="1.98" y="0.422" width="1008.24" height="1010.74" style="fill:rgb(238,213,171);"/>
    </g>
    <g transform="matrix(1.23614,0,0,1.23614,-129.756,-130.783)">
        <path d="M180.571,509.777C308.9,502.788 367.475,560.9 394.858,582.885C406.266,592.044 417.455,601.506 428.118,611.524C470.119,650.988 479.191,677.496 505.181,699.818C543.717,732.916 582.222,730.221 597.925,687.841C600.227,681.629 602.904,576.026 620.338,576.045C623.012,576.047 672.355,578.124 743.322,577.707C820.587,577.252 827.343,569.265 832.108,585.129C834.032,591.532 873.371,792.748 771.399,857.118C691.003,907.868 554.429,856.304 524.9,828.011C408.428,716.413 377.308,602.543 305.818,553.248C274.891,531.922 180.584,508.195 180.571,509.777Z" style="fill:rgb(116,77,38);"/>
        <clipPath id="_clip1">
            <path d="M180.571,509.777C308.9,502.788 367.475,560.9 394.858,582.885C406.266,592.044 417.455,601.506 428.118,611.524C470.119,650.988 479.191,677.496 505.181,699.818C543.717,732.916 582.222,730.221 597.925,687.841C600.227,681.629 602.904,576.026 620.338,576.045C623.012,576.047 672.355,578.124 743.322,577.707C820.587,577.252 827.343,569.265 832.108,585.129C834.032,591.532 873.371,792.748 771.399,857.118C691.003,907.868 554.429,856.304 524.9,828.011C408.428,716.413 377.308,602.543 305.818,553.248C274.891,531.922 180.584,508.195 180.571,509.777Z"/>
        </clipPath>
        <g clip-path="url(#_clip1)">
            <path d="M181.35,509.735C309.137,503.023 367.531,560.944 394.858,582.885C406.266,592.044 417.455,601.506 428.118,611.524C470.119,650.988 479.191,677.496 505.181,699.818C543.717,732.916 582.222,730.221 597.925,687.841C600.227,681.629 602.904,576.026 620.338,576.045C623.012,576.047 672.355,578.124 743.322,577.707C820.587,577.252 827.343,569.265 832.108,585.129C834.032,591.532 873.371,792.748 771.399,857.118C691.003,907.868 554.429,856.304 524.9,828.011C408.428,716.413 377.308,602.543 305.818,553.248C276.537,533.057 190.44,510.713 181.35,509.735Z" style="fill:rgb(116,77,38);"/>
        </g>
        <path d="M180.571,509.777C308.9,502.788 367.475,560.9 394.858,582.885C406.266,592.044 417.455,601.506 428.118,611.524C470.119,650.988 479.191,677.496 505.181,699.818C543.717,732.916 582.222,730.221 597.925,687.841C600.227,681.629 602.904,576.026 620.338,576.045C623.012,576.047 672.355,578.124 743.322,577.707C820.587,577.252 827.343,569.265 832.108,585.129C834.032,591.532 873.371,792.748 771.399,857.118C691.003,907.868 554.429,856.304 524.9,828.011C408.428,716.413 377.308,602.543 305.818,553.248C274.891,531.922 180.584,508.195 180.571,509.777Z" style="fill:none;stroke:black;stroke-width:28.31px;"/>
    </g>
    <g transform="matrix(1.2139,-0.000161422,-0.000161422,1.23614,-110.986,-130.646)">
        <path d="M598.698,643.399L839.836,643.936" style="fill:none;stroke:black;stroke-width:28.57px;"/>
    </g>
    <g transform="matrix(1.23614,0,0,1.23614,-129.756,-130.783)">
        <path d="M743.548,510.69C659.024,471.776 649.016,396.734 661.431,353.401C672.505,314.746 729.065,266.156 740.067,249.068C754.93,225.984 768.803,186.912 740.516,143.419C737.642,140.763 747.65,156.102 740.516,143.419C751.044,160.647 764.085,153.753 786.35,201.329C788.943,206.871 792.56,223.957 794.036,230.77C809.995,304.389 747.581,353.32 737.49,366.97C705.858,409.756 733.102,500.131 743.548,510.69Z" style="fill-opacity:0;stroke:black;stroke-width:22.65px;"/>
    </g>
</svg>
